<svg id="Layer_1" data-name="Layer 1" xmlns="http://www.w3.org/2000/svg" viewBox="0 0 415.75 415.75"><defs><style>.cls-1{fill:#fde68a;}</style></defs><path class="cls-1" d="M440.68,71.44A80.6,80.6,0,0,1,441.26,184a16,16,0,0,0-23.2-22h0a48,48,0,0,0-67.88-67.87h0a16,16,0,0,0-22.62-22.62l-.4.4c.12-.14.25-.27.38-.4a80.59,80.59,0,0,1,113.14,0Z" transform="translate(-48.11 -48.25)"/><path class="cls-1" d="M440.69,162a16,16,0,0,1,.57,22,.57.57,0,0,1-.13.14l-.45.46a16,16,0,0,1-22.81-22.43l.19-.19A16,16,0,0,1,440.69,162Z" transform="translate(-48.11 -48.25)"/><path class="cls-1" d="M429.38,189.26a15.92,15.92,0,0,0,11.3-4.69l.45-.46c-.14.16-.29.31-.44.46l-45.25,45.26h0a16,16,0,0,0,0-22.62l-11.31-11.31,33.75-33.75a16,16,0,0,0,11.51,27.12Z" transform="translate(-48.11 -48.25)"/><path class="cls-1" d="M395.43,207.2a16,16,0,1,1-22.62,22.62L361.5,218.51l22.62-22.62Z" transform="translate(-48.11 -48.25)"/><path class="cls-1" d="M384.12,234.51a15.91,15.91,0,0,0,11.31-4.69h0L190.66,434.6l-.17.16A16,16,0,0,0,176,407.64l-4.61,1L361.5,218.51l11.31,11.31A15.91,15.91,0,0,0,384.12,234.51Z" transform="translate(-48.11 -48.25)"/><polygon class="cls-1" points="268.13 79.75 336.01 147.64 313.39 170.26 245.5 102.38 268.13 79.75"/><path class="cls-1" d="M350.18,71.44a16,16,0,0,1,0,22.62h0a1.8,1.8,0,0,1-.2.19A16,16,0,0,1,327,72l.19-.2.4-.4A16,16,0,0,1,350.18,71.44Z" transform="translate(-48.11 -48.25)"/><path class="cls-1" d="M350,94.26,316.24,128l-11.31-11.31a16,16,0,0,0-22.43-.19L327,72a16,16,0,0,0,23,22.22Z" transform="translate(-48.11 -48.25)"/><path class="cls-1" d="M316.24,128l-22.63,22.63L282.3,139.32a16,16,0,0,1-.19-22.43l.39-.39a16,16,0,0,1,22.43.19Z" transform="translate(-48.11 -48.25)"/><path class="cls-1" d="M282.3,139.32l11.31,11.31L103.5,340.74l1-4.61a16,16,0,0,0-27.11-14.5l.15-.16L282.11,116.89A16,16,0,0,0,282.3,139.32Z" transform="translate(-48.11 -48.25)"/><path d="M282.5,116.5l-.39.39.19-.2A1.8,1.8,0,0,1,282.5,116.5Z" transform="translate(-48.11 -48.25)"/><path class="cls-1" d="M195,419.92a16,16,0,0,1-4.49,14.84,17.58,17.58,0,0,1-1.53,1.31c-.36.27-.73.53-1.12.77l-.58.35-.6.32c-.41.21-.83.4-1.26.58l-.6.23q-.36.14-.72.24l-.68.19-.7.17-.43.09A16,16,0,0,1,168,412l3.34-3.34,4.61-1A16,16,0,0,1,195,419.92Z" transform="translate(-48.11 -48.25)"/><path d="M189,436.07a17.58,17.58,0,0,0,1.53-1.31A14.34,14.34,0,0,1,189,436.07Z" transform="translate(-48.11 -48.25)"/><path d="M187.84,436.84c.39-.24.76-.5,1.12-.77A11.73,11.73,0,0,1,187.84,436.84Z" transform="translate(-48.11 -48.25)"/><path d="M187.26,437.19l.58-.35C187.65,437,187.46,437.08,187.26,437.19Z" transform="translate(-48.11 -48.25)"/><path d="M186.66,437.51l.6-.32A5.83,5.83,0,0,1,186.66,437.51Z" transform="translate(-48.11 -48.25)"/><path d="M186.66,437.51a11.93,11.93,0,0,1-1.26.58C185.83,437.91,186.25,437.72,186.66,437.51Z" transform="translate(-48.11 -48.25)"/><path d="M185.4,438.09c-.2.09-.4.16-.6.23Z" transform="translate(-48.11 -48.25)"/><path d="M183.4,438.75l.68-.19A5.27,5.27,0,0,1,183.4,438.75Z" transform="translate(-48.11 -48.25)"/><path d="M182.7,438.92l.7-.17A5.49,5.49,0,0,1,182.7,438.92Z" transform="translate(-48.11 -48.25)"/><path class="cls-1" d="M179.34,439.28a16.05,16.05,0,0,0,2.93-.27L68.19,463.48a16,16,0,0,0,11.58-12.12L85,427.17l86.41-18.54L168,412a16,16,0,0,0,11.31,27.31Z" transform="translate(-48.11 -48.25)"/><path class="cls-1" d="M92.2,317.13a16,16,0,0,1,12.29,19l-1,4.61-3.35,3.35a16,16,0,0,1-27-14.28l.08-.39c0-.23.11-.47.17-.7s.11-.43.18-.64l0-.13c.06-.19.13-.39.2-.58.15-.44.33-.87.52-1.29l.31-.62c.06-.13.13-.25.2-.38.17-.31.35-.61.53-.9s.21-.32.32-.47.26-.37.4-.55a14.69,14.69,0,0,1,1.31-1.53A16,16,0,0,1,92.2,317.13Z" transform="translate(-48.11 -48.25)"/><path class="cls-1" d="M103.5,340.74,85,427.17l-24.2,5.19A16,16,0,0,0,48.63,444L73.12,329.81a16,16,0,0,0,27,14.28Z" transform="translate(-48.11 -48.25)"/><path class="cls-1" d="M85,427.17l-5.19,24.19a16,16,0,0,1-11.58,12.12l-.2,0-.52.11a14.47,14.47,0,0,1-1.69.27l-.84.07-.8,0h0l-.8,0-.84-.07a16.94,16.94,0,0,1-1.69-.27c-.46-.1-.92-.22-1.36-.35l-.69-.23-.65-.25-.64-.28c-.21-.09-.41-.19-.62-.3s-.48-.25-.71-.39-.32-.18-.47-.28l-.57-.37a17.86,17.86,0,0,1-1.59-1.25,16.07,16.07,0,0,1-4.83-7.88,17.16,17.16,0,0,1-.38-1.92.77.77,0,0,1,0-.15l-.06-.6c0-.22,0-.45,0-.68a16.61,16.61,0,0,1,.35-4.07l.12-.57,0-.12a16,16,0,0,1,12.13-11.59Z" transform="translate(-48.11 -48.25)"/><path d="M76.07,323.16c-.14.18-.27.36-.4.55A5.12,5.12,0,0,1,76.07,323.16Z" transform="translate(-48.11 -48.25)"/><path d="M75.67,323.71c-.11.15-.21.31-.32.47A4.87,4.87,0,0,1,75.67,323.71Z" transform="translate(-48.11 -48.25)"/><path d="M74.82,325.08c-.07.13-.14.25-.2.38C74.68,325.33,74.75,325.2,74.82,325.08Z" transform="translate(-48.11 -48.25)"/><path d="M74.31,326.08c-.19.42-.37.85-.52,1.29A12.88,12.88,0,0,1,74.31,326.08Z" transform="translate(-48.11 -48.25)"/><path d="M73.79,327.37c-.07.19-.14.39-.2.58C73.65,327.76,73.71,327.56,73.79,327.37Z" transform="translate(-48.11 -48.25)"/><path d="M73.55,328.08c-.07.21-.13.43-.18.64C73.42,328.51,73.48,328.29,73.55,328.08Z" transform="translate(-48.11 -48.25)"/><path d="M73.37,328.72c-.06.23-.12.47-.17.7C73.25,329.19,73.3,329,73.37,328.72Z" transform="translate(-48.11 -48.25)"/><path d="M67.47,463.64l.52-.11a14.79,14.79,0,0,1-2.21.38A14.47,14.47,0,0,0,67.47,463.64Z" transform="translate(-48.11 -48.25)"/><path d="M64.94,464l.84-.07C65.5,463.94,65.22,464,64.94,464Z" transform="translate(-48.11 -48.25)"/><path d="M64.14,464l.8,0Z" transform="translate(-48.11 -48.25)"/><path d="M63.3,464l.8,0Z" transform="translate(-48.11 -48.25)"/><path d="M62.46,463.91l.84.07C63,464,62.74,463.94,62.46,463.91Z" transform="translate(-48.11 -48.25)"/><path d="M60.77,463.64a16.94,16.94,0,0,0,1.69.27,14.74,14.74,0,0,1-3.05-.62C59.85,463.42,60.31,463.54,60.77,463.64Z" transform="translate(-48.11 -48.25)"/><path d="M58.07,462.81l.65.25C58.5,463,58.28,462.9,58.07,462.81Z" transform="translate(-48.11 -48.25)"/><path d="M56.81,462.23c.21.11.41.21.62.3C57.22,462.44,57,462.34,56.81,462.23Z" transform="translate(-48.11 -48.25)"/><path d="M55.63,461.56c.15.1.31.19.47.28A4.48,4.48,0,0,1,55.63,461.56Z" transform="translate(-48.11 -48.25)"/><path d="M55.06,461.19l.57.37C55.44,461.45,55.25,461.32,55.06,461.19Z" transform="translate(-48.11 -48.25)"/><path d="M55.06,461.19a17.11,17.11,0,0,1-1.59-1.25A17.86,17.86,0,0,0,55.06,461.19Z" transform="translate(-48.11 -48.25)"/><path d="M50.14,455.78a16.1,16.1,0,0,0,3.33,4.16A15.34,15.34,0,0,1,50.14,455.78Z" transform="translate(-48.11 -48.25)"/><path d="M48.64,452.06a16.1,16.1,0,0,0,1.5,3.72A15.18,15.18,0,0,1,48.64,452.06Z" transform="translate(-48.11 -48.25)"/><path d="M48.64,452.06c-.06-.23-.12-.46-.17-.7-.09-.41-.16-.81-.21-1.22A17.16,17.16,0,0,0,48.64,452.06Z" transform="translate(-48.11 -48.25)"/><path d="M48.6,444.07l-.12.57a16.61,16.61,0,0,0-.35,4.07A15.92,15.92,0,0,1,48.6,444.07Z" transform="translate(-48.11 -48.25)"/><path d="M48.18,449.39l.06.6Q48.2,449.69,48.18,449.39Z" transform="translate(-48.11 -48.25)"/><path d="M48.13,448.71c0,.23,0,.46,0,.68C48.15,449.16,48.14,448.93,48.13,448.71Z" transform="translate(-48.11 -48.25)"/></svg>