<svg id="Layer_1" enable-background="new 0 0 512 512" height="512" viewBox="0 0 512 512" width="512" xmlns="http://www.w3.org/2000/svg"><g id="XMLID_1_"><g id="XMLID_3411_"><path id="XMLID_859_" d="m430.9 507h-146.7l26.7-50 95.5 19.9c14.3 3 24.5 15.5 24.5 30.1z" fill="#b1614a"/><path id="XMLID_1998_" d="m380.3 471.5-69.4-14.5-26.7 50h35.8c26 0 48.6-14.3 60.3-35.5z" fill="#993e29"/><path id="XMLID_1208_" d="m256 175h-128l-98.5 132.9c-15.9 21.5-24.5 47.5-24.5 74.3 0 68.9 55.9 124.8 124.8 124.8h126.2z" fill="#ffc971"/><path id="XMLID_2032_" d="m128 175-50.4 68h178.4v-68z" fill="#f8961e"/><path id="XMLID_843_" d="m46 90c0 46.9 38.1 85 85 85h40l-70.3 137.3c-9.7 18.9-14.7 39.8-14.7 61 0 73.8 59.9 133.7 133.7 133.7h36.3v-417c0-46.9-38.1-85-85-85h-40c-46.9 0-85 38.1-85 85z" fill="#b1614a"/><path id="XMLID_1994_" d="m236 166.8 20-14.4v354.6h-37.1c-64.4 0-114.9-55.3-109.1-119.4 8-88.5 54.1-169 126.2-220.8z" fill="#993e29"/><path id="XMLID_851_" d="m354.5 127 42.5 116c0 85.1-25.4 168.2-72.9 238.7l-17.1 25.3h-75.7c-54 0-96-47.2-89.6-100.8l1.6-14c10.1-85.8 59.8-162 134.2-205.9 12.7-7.5 24.8-16 36.2-25.5z" fill="#b1614a"/><path id="XMLID_1999_" d="m273.7 331.2-42.4 106.8 65.4-38.7 39.3-75.3z" fill="#993e29"/><path id="XMLID_861_" d="m397 127-3.1-38c-.5-6.4-5.9-11.3-12.3-11.3-5.1 0-9.7 3.2-11.5 8l-15.6 41.3v80l42.5 36h38.4c30.1 0 57.6-16.7 71.6-43.3l-35.4-48.5c-11-15.2-28.7-24.2-47.5-24.2z" fill="#b1614a"/><path id="XMLID_744_" d="m498 188h-9.7c-14.7 0-29.2 3.2-42.5 9.5-13.3 6.3-27.8 9.5-42.5 9.5h-19.3-29.5-.5l-19.4 84.6c-9.7 42-25.6 82.3-47.3 119.6l-56 95.8h75.7l17.1-25.3c47.5-70.5 72.9-153.6 72.9-238.7h38.4c29.9 0 57.3-16.5 71.3-42.9l.2-.4z" fill="#ffc971"/><path id="XMLID_2005_" d="m344.4 448c19.2-35 33.4-72 42.2-111h-65.1c-9 26-20.5 50.4-34.3 74.1l-21.6 36.9z" fill="#f8961e"/><circle id="XMLID_2398_" cx="429.2" cy="166" fill="#ffc971" r="25"/><path id="XMLID_860_" d="m300.3 369c-38.1 0-69 30.9-69 69v69h69c38.1 0 69-30.9 69-69 0-38.1-30.9-69-69-69z" fill="#b1614a"/><g id="XMLID_857_"><path id="XMLID_858_" d="m446.2 356.1c-36.5 8.5-74.6 6.8-110.2-4.7l-62.3-20.2 46.3-80.2 39.7 41.1c20.2 21 49.7 30.3 78.3 24.9 12.3-2.3 23.7 7.1 23.7 19.6 0 9.3-6.4 17.4-15.5 19.5z" fill="#b1614a"/></g><path id="XMLID_856_" d="m448.5 175-9.4 3.4c-10.4 3.8-21.9-1.6-25.7-12l-3.4-9.4 9.4-3.4c10.4-3.8 21.9 1.6 25.7 12z" fill="#1f3f77"/><path id="XMLID_1992_" d="m502.9 206.7-19.9-10.1-4.5 8.9 18.4 9.3c2-2.6 4.1-5.3 6-8.1z" fill="#993e29"/><g id="XMLID_852_"><path id="XMLID_1287_" d="m372.8 103h10v24h-10z" fill="#993e29" transform="matrix(.999 .042 -.042 .999 5.111 -15.619)"/></g><path id="XMLID_842_" d="m171 175c19.9-38.9-8.3-85-52-85h-8l5.2-5.5c9.1-9.6 21.8-15 35.1-15 38.8 0 61.8 43.4 40.1 75.5z" fill="#993e29"/><path id="XMLID_2083_" d="m377 226v11.9c0 17.1 6.5 33.5 18.1 46.1 1.3-14 1.9-27.5 1.9-41h38.4c18.3 0 35.7-6 49.6-17z" fill="#f8961e"/></g></g></svg>